<svg height="25" width="25" xmlns="http://www.w3.org/2000/svg"><path d="M18.19 13.74a1.9 1.9 0 0 0-1.38-.63c-.5 0-.98.22-1.39.63l-1.28 1.27-.32-.16a4.96 4.96 0 0 1-.4-.21c-1.2-.77-2.3-1.76-3.34-3.05a8.16 8.16 0 0 1-1.1-1.72c.33-.3.64-.62.94-.93l.34-.34c.86-.86.86-1.96 0-2.81l-1.1-1.1a19.93 19.93 0 0 0-1.14-1.14c-.4-.4-.88-.6-1.38-.6s-.97.2-1.38.6l-1.39 1.4a2.97 2.97 0 0 0-.88 1.88 7.1 7.1 0 0 0 .52 3 17.47 17.47 0 0 0 3.11 5.18A19.14 19.14 0 0 0 13 20c.94.44 2.19.97 3.58 1.06h.26c.94 0 1.73-.33 2.35-1l.02-.02c.2-.26.45-.49.7-.74.18-.16.36-.34.53-.52.4-.42.62-.9.62-1.4s-.22-.99-.63-1.4z" fill="none" stroke="#42a047" stroke-miterlimit="50" stroke-width="2"/></svg>